<svg xmlns="http://www.w3.org/2000/svg" width="54" height="53" viewBox="0 0 54 53" fill="none"><metadata><rdf:RDF xmlns:rdf="http://www.w3.org/1999/02/22-rdf-syntax-ns#" xmlns:dc="http://purl.org/dc/elements/1.1/"><rdf:Description><dc:creator>RealFaviconGenerator</dc:creator><dc:source>https://realfavicongenerator.net</dc:source></rdf:Description></rdf:RDF></metadata><mask id="mask0_85_25" style="mask-type:luminance" maskUnits="userSpaceOnUse" x="0" y="0" width="54" height="53">
<path d="M53.6409 0H0V52.9936H53.6409V0Z" fill="white"></path>
</mask><g mask="url(#mask0_85_25)">
<path d="M18.6654 41.4372L24.8785 39.644C21.7492 39.1555 18.6849 38.2814 15.5296 37.915H2.58289L2.19254 36.983C2.2576 36.9188 3.76045 36.8095 4.04671 36.7131C4.32646 36.6167 4.20936 36.4431 4.04671 36.2632L2.0364 36.591L1.85424 36.2246L4.01418 35.5883L3.74744 33.3966L1.35328 34.7913L1.19714 34.0714C2.06893 33.6087 2.90819 33.0816 3.74744 32.561C6.3628 30.9285 9.03671 29.0774 11.6976 27.5605C14.7228 25.838 18.0083 25.3624 21.053 27.3613C23.3431 28.8588 25.6462 30.7421 27.8191 32.4003C29.0813 33.8529 28.5608 35.659 26.7131 36.1989L26.8953 36.8609L33.4272 37.5229L40.4145 35.8582L27.5849 36.591L28.19 36.1603C28.3721 36.0639 28.5738 35.6011 28.7625 35.659L28.9642 35.8647C29.5042 35.6333 29.1789 35.1448 29.1463 34.817C29.1268 34.5599 29.2179 34.0907 29.2049 33.7694C29.2049 33.6215 29.1398 33.4865 29.1333 33.3387L36.2247 31.809C36.2573 31.7769 36.1792 31.2755 36.1532 31.1791C36.1336 31.0891 36.2052 31.0634 36.0556 31.0827L28.8601 32.8759L28.9772 32.6253L36.0556 30.7549L35.2749 23.6334L24.6573 29.0388C24.5337 29.1417 24.0392 28.7367 24.0718 28.6917L35.3399 22.8043C37.0705 22.9907 38.5408 22.2194 40.1673 22.0458C41.6571 21.8852 43.5243 21.7438 45.0272 21.7116C46.2893 21.6795 47.2131 21.8852 48.0654 22.8428C48.189 22.9778 48.8266 23.8005 48.8721 23.9098C48.9372 24.064 48.8591 24.3404 48.9697 24.4111L50.0107 24.514C50.1278 24.5525 50.1538 24.7068 50.1928 24.8032C50.2579 24.9639 50.5767 26.2815 50.5832 26.4165C50.5832 26.6543 50.1473 26.6735 50.1928 26.9242C50.375 27.6441 50.5897 28.4604 50.6547 29.1995C50.6743 29.4245 50.5962 29.8422 50.6222 29.9579C50.6677 30.1186 50.902 30.2472 50.9865 30.395C51.1817 30.7228 51.3248 31.989 51.2598 32.3746C51.1557 33.0431 50.2709 33.1138 49.7244 33.223C49.6398 33.7051 49.4381 34.0522 49.0998 34.4057L53.0164 34.1743L52.7691 34.862L46.1136 35.4212C42.6265 36.0703 39.1849 36.9188 35.7303 37.7286L46.6211 38.9305L48.2476 35.9354L49.0933 35.8004C46.1332 42.9669 39.5492 48.6872 31.8918 50.5448C21.9378 52.9614 11.8017 48.5266 6.10257 40.4088L5.00958 38.5963L5.9204 38.6606C10.8388 46.9262 20.7863 51.9009 30.5321 50.0691C36.7842 48.8929 42.5875 44.9401 46.0551 39.7275L33.5378 38.3263L28.5738 39.6568L37.4804 41.45C36.0881 41.3536 34.5007 41.585 33.1344 41.45C31.1111 41.2379 28.8471 40.3445 26.7782 40.1196L21.7166 41.4565H18.6329L18.6654 41.4372ZM47.8312 23.6141C47.4538 22.8364 46.6081 22.3994 45.7623 22.2901L40.1347 22.6822C40.2584 22.8621 40.4275 22.9842 40.5576 23.1642C40.7398 23.4277 40.922 24.1283 41.1432 24.1733L47.8377 23.6077L47.8312 23.6141ZM39.3931 23.7491C39.354 23.8648 39.2044 23.9098 39.1003 23.9612C38.4953 24.2376 37.7536 24.4111 37.1421 24.6939C37.0315 24.7453 36.9859 24.8932 36.9729 25.0024C36.9469 25.2081 37.0119 25.9151 37.0314 26.1786C37.1095 27.4063 37.2592 29.1802 37.5064 30.3629C37.5259 30.44 37.5259 30.4978 37.6105 30.5235C37.7731 30.4978 38.0984 30.4978 38.1114 30.2986L37.5779 25.5873C37.8577 25.2338 40.4991 24.4882 40.5121 24.3147C40.5446 23.9741 39.816 22.8686 39.4126 22.8171C39.1068 22.7786 37.5129 23.3313 37.2592 23.5434C37.064 23.7105 37.0184 23.9998 37.0184 24.244C37.0184 24.3468 36.9989 24.3597 37.1225 24.3468L39.3801 23.7427L39.3931 23.7491ZM41.4164 28.004L40.5706 24.6811L37.8512 25.7544L38.3131 30.3307C38.6839 30.3307 39.1198 30.1315 39.4907 30.2022C39.894 30.2793 40.3299 31.0377 40.5902 31.1149C40.7268 31.1534 41.475 31.0377 41.4945 30.9542L41.0521 28.1326C40.9089 27.9205 38.9377 28.0361 38.6514 27.7726C38.5343 27.6569 38.3912 26.4872 38.3782 26.2429C38.3717 26.0629 38.3326 25.8766 38.4758 25.7416C38.5668 25.6516 39.816 25.2081 39.9981 25.176C40.0697 25.1631 40.1347 25.1246 40.1998 25.176C40.421 25.3109 40.7203 27.3806 40.922 27.7919C41.0195 27.9783 41.2082 28.0233 41.4099 28.0104L41.4164 28.004ZM49.3796 24.8096L49.1779 24.906L49.5813 25.7994L49.3796 24.8032V24.8096ZM20.0837 27.4705C18.7239 26.8085 17.3057 26.6286 15.7963 26.8021C15.6987 26.8149 15.6272 26.8149 15.5621 26.9049L16.8177 27.6698C17.8196 27.4641 18.8345 27.5734 19.8495 27.5348C19.9275 27.5348 20.1032 27.5862 20.0837 27.4705ZM13.3306 27.4705H14.378C14.5016 27.4705 15.0742 27.8112 15.2173 27.9076L18.5288 30.53C17.1625 30.305 15.7963 29.9836 14.5667 29.3409C14.0918 29.0902 13.773 28.7624 13.207 28.621C11.8798 28.2868 10.3054 29.2831 9.29044 30.0415L9.84344 33.9943L13.0573 33.5251C13.0443 33.2552 13.0183 32.9724 12.9793 32.7024C12.8622 31.8733 12.5173 30.6778 12.5173 29.8937C12.5173 29.6044 12.6865 29.418 12.9207 29.6494L13.5258 33.4287C15.6011 33.3644 17.6049 33.8079 19.4006 34.8234C17.5269 34.682 15.6076 34.6756 13.7274 34.7913L13.7925 35.389C14.0527 35.389 14.313 35.3955 14.5667 35.389C15.2173 35.3698 15.9264 35.3441 16.59 35.389C17.9107 35.4855 19.2314 35.8004 20.5391 35.9868C20.2398 35.2862 19.6933 34.5856 20.0186 33.7758C20.1422 33.4801 20.461 33.3451 20.5391 33.0623C20.1943 32.9724 19.8234 32.7603 19.5307 32.5546C19.1013 32.2525 18.4442 31.7383 19.4201 31.6612C20.6627 31.5648 21.4954 32.5032 22.5169 32.8695C23.2781 33.1395 25.5291 33.0431 26.2317 32.5803C26.3293 32.5096 26.5895 32.3296 26.518 32.1946L24.4101 30.6071C24.2084 30.6585 24.0522 30.7806 23.8441 30.832C22.9072 31.0699 21.014 30.877 20.0642 30.6328C18.249 30.1636 17.0649 28.7239 15.6402 27.6762C14.931 27.1492 14.5537 26.9628 13.6819 27.2713C13.5843 27.3099 13.3436 27.3677 13.3111 27.4705H13.3306ZM43.7195 30.8513C43.9277 30.9863 46.9594 30.53 47.4473 30.4464C47.9873 30.3564 48.5859 30.2857 49.1128 30.1572C49.3405 30.0993 49.9781 29.9708 50.0432 29.7458C50.0887 29.5916 49.7569 27.2777 49.6528 27.2006L42.4964 28.0683L42.9843 28.4861L43.7195 30.8513ZM43.4397 30.8642C43.1405 29.8165 42.9193 28.3704 41.5856 28.2033C41.4489 28.2097 41.9239 30.6521 41.9564 30.8642H43.4462H43.4397ZM9.6873 34.1164L9.08225 30.1315L4.35899 32.9724C4.38502 33.7822 4.51513 34.5856 4.63224 35.3826L9.6938 34.1164H9.6873ZM49.7179 31.7962L49.8155 30.9285L50.4596 30.6328C50.1408 30.3179 49.9521 30.575 49.6658 30.6521C48.202 31.0313 45.5867 31.4491 44.0773 31.5326C43.6414 31.5583 41.8198 31.3141 41.6441 31.5969C41.5986 31.6676 41.6051 31.7512 41.6051 31.8283C41.5986 32.0404 41.8263 33.4737 41.8913 33.6794C41.9434 33.8272 42.119 33.7951 42.2557 33.7951C45.0467 33.3451 47.8702 33.0173 50.6157 32.3296L50.6547 31.6612L49.7114 31.7962H49.7179ZM39.8355 30.8899C39.3475 30.4528 39.0157 30.6071 38.4302 30.7549C38.0138 30.8578 37.4999 30.877 37.6365 31.3977C38.222 31.3719 38.8531 31.0377 39.4126 31.2755C40.2258 31.6226 40.5381 33.1716 40.8179 33.9108L41.4815 33.8915L41.2407 31.6547L41.1757 31.6098C40.3299 31.9183 40.2779 31.282 39.829 30.8835L39.8355 30.8899ZM26.3618 35.5819C28.1054 35.1834 28.2615 33.5444 26.9278 32.5289L25.8218 33.223C26.4269 33.9365 26.6546 34.6756 26.3618 35.5819ZM37.7016 32.6574L36.498 32.8695C36.3744 33.4094 36.4199 34.0007 36.6866 34.4892L37.9748 34.3864L37.7016 32.6574ZM39.7769 34.8363C40.1608 34.3864 39.868 32.5482 39.1003 32.8052C38.723 32.9274 38.8401 34.1421 38.9572 34.4571C39.0743 34.772 39.4581 35.2155 39.7834 34.8363H39.7769ZM36.0816 32.9274C35.7498 33.0045 34.5462 33.0752 34.4031 33.3002C34.2079 33.5958 34.4681 34.5085 34.7154 34.7913L36.2898 34.5856C36.3288 34.5406 36.0881 34.0457 36.0881 33.9557V32.9274H36.0816ZM21.3458 33.2744C20.1422 33.4737 20.1878 34.6306 20.7017 35.4726C20.949 35.884 21.1051 36.0125 21.5995 36.0511C22.4908 36.1282 23.7985 36.0254 24.6963 35.9097C24.872 35.8904 25.8674 35.7233 25.9259 35.6526C26.2838 34.7656 26.03 33.9815 25.4185 33.2873C24.8264 33.2744 24.2214 33.3966 23.6294 33.3901C22.9007 33.3901 22.081 33.1523 21.3523 33.268L21.3458 33.2744ZM33.7135 35.3762C33.9802 35.2155 33.9282 33.6279 33.2906 33.7244C32.8677 33.9879 33.1995 35.6847 33.7135 35.3762ZM46.7512 34.5856L46.1852 33.8786L42.2101 34.5214L42.0995 34.8877L46.7577 34.5921L46.7512 34.5856ZM13.2655 34.7849L10.2078 35.1962C10.0061 35.2412 10.0972 35.7618 10.2078 35.7875L13.2915 35.4405L13.3826 35.3505L13.2655 34.7849ZM38.5083 35.1834C38.3131 34.5599 37.9423 34.7656 37.7666 35.2476L38.5083 35.1834ZM36.2182 35.4533C36.0556 35.0998 35.8018 34.9905 35.418 35.0612L35.2749 35.4533H36.2182ZM32.627 35.132L30.942 35.3505C30.8314 35.4276 30.8899 35.7233 30.8834 35.8518L32.8417 35.7168L32.627 35.132ZM9.95404 35.8518C9.88898 35.7168 9.92151 35.2926 9.79139 35.2669L4.82742 36.1539L4.93151 36.5845L9.96054 35.8518H9.95404ZM16.6421 36.0511C17.0064 36.3789 17.3642 36.983 17.8066 37.1951C18.3921 37.4651 19.843 37.2723 20.5196 37.253C21.9834 37.1951 23.5903 37.163 25.0216 36.8995C25.1713 36.8738 26.004 36.7067 26.0235 36.6167C26.1081 36.1989 24.859 36.5524 24.6313 36.5781C23.5318 36.7002 22.4388 36.7452 21.3328 36.7195L16.6421 36.0575V36.0511ZM15.6922 36.5845C15.3409 36.6102 14.918 36.6038 14.5797 36.6488C14.4821 36.6617 14.4626 36.6102 14.4821 36.7516C14.8464 37.4587 15.5686 37.3944 15.6987 36.5845H15.6922ZM13.8055 37.2466L13.6038 36.8159L12.9402 36.7966L12.7906 37.2466H13.8055ZM11.2227 36.9316C11.0991 36.8609 9.04322 37.028 8.70491 37.0473C8.14541 37.0859 7.5859 37.2016 7.01339 37.1823L6.16762 37.3173L11.3658 37.253C11.3983 37.2208 11.2357 36.9445 11.2162 36.938L11.2227 36.9316ZM31.3583 37.9793C30.968 37.9793 30.5646 37.9536 30.1743 37.9086C28.9382 37.78 27.6175 37.5165 26.3944 37.4458C25.3534 37.388 24.1498 37.7415 23.0894 37.8443C22.1851 37.9279 21.2612 37.8957 20.3569 38.0114L26.7327 39.239L31.3648 37.9793H31.3583Z" fill="white"></path>
<path d="M50.531 21.9494L49.8479 20.8632C45.9704 15.5092 36.6345 18.8707 31.612 20.7668C27.741 22.2322 23.883 24.0705 19.8819 25.176C19.5371 25.2724 18.7369 25.5295 18.4246 25.5487C18.1188 25.5616 17.735 25.4266 17.4162 25.4138C16.1671 25.3624 14.9309 25.4716 13.7339 25.8508C13.324 25.9794 12.4912 26.4486 12.1594 26.4614C11.4243 26.5 10.3833 26.1079 9.81733 25.6516C8.5552 24.6489 8.46411 23.2349 8.75688 21.7438L9.30988 20.0276C8.83495 20.7925 8.28846 21.7759 8.14533 22.6693C7.87208 24.3533 8.50315 25.9987 10.1296 26.7314C10.2272 26.7764 11.2161 27.0592 11.164 27.1427L4.77529 31.1277C4.65168 31.1727 4.65168 31.0313 4.63216 30.9477C2.60884 22.8107 9.51806 17.0968 15.7832 13.3818L15.8808 13.4139C14.0722 15.0593 10.9038 17.6881 10.6826 20.2655C10.3443 24.199 16.3102 23.6077 18.7889 23.1256C24.1107 22.0908 30.5125 19.1085 35.3008 16.5826C37.682 15.3292 39.8159 13.7674 42.0929 12.5012C43.0753 11.9549 44.2854 11.6207 45.0856 10.7915L45.2157 10.8494C47.8376 14.0695 49.7829 17.8681 50.5115 21.9559L50.531 21.9494Z" fill="white"></path>
<path d="M16.9087 15.2393L17.8521 14.603C19.2443 14.2237 21.3002 14.3523 22.6144 13.9024C22.8551 13.8252 23.2259 13.5682 23.1804 13.2918C23.1674 13.2146 22.5233 12.0127 22.4387 11.8906C22.3932 11.8263 22.3606 11.7556 22.2826 11.7235C22.2045 11.7235 21.2546 12.4241 20.9944 12.5076C20.8252 12.5655 20.9358 12.4434 20.9424 12.3919C20.9814 12.1863 21.0595 11.9806 21.092 11.7749L15.0806 12.302C15.6401 11.5628 16.2191 11.3379 17.0909 11.1258C21.4303 10.0845 25.9128 9.53177 30.2653 8.54196C33.1408 6.7423 36.049 4.62127 39.0417 3.02086C41.4163 1.75467 43.2314 1.38831 45.8143 2.40383C48.0263 3.27152 45.9769 5.03262 44.8709 5.82961C43.3225 6.96083 41.5724 7.82852 39.9265 8.79905C39.9655 8.87618 40.7722 9.03044 40.8763 9.00473C40.9999 8.97259 41.4814 8.57409 41.683 8.46483C41.8522 8.36842 42.8801 7.88637 42.9647 7.96992C42.4247 8.96616 42.9777 10.4959 44.2464 10.4316C44.2724 10.5537 44.1878 10.5987 44.1032 10.663C43.4136 11.2157 41.67 11.9549 40.7852 11.8135C40.512 11.7749 40.2322 11.5243 40.1542 11.505C40.0956 11.4921 39.2759 11.8713 39.0482 11.7556L39.0807 11.4921L37.8316 12.2248L38.0333 11.5243C38.0333 11.4664 37.9292 11.4857 37.8641 11.4921C37.1355 11.55 35.8798 11.8713 35.1381 12.0706C32.796 12.6876 30.9939 14.3266 28.6453 14.95L28.7819 15.0593C28.8144 15.31 28.7494 15.3742 28.5607 15.4964C27.9492 15.8884 27.3571 15.4578 26.7326 15.4771C25.8933 15.5028 24.7158 15.8499 23.8179 15.9398C23.4861 15.972 22.4517 16.0941 22.2175 15.9527C21.9963 15.702 22.1199 15.4385 22.3086 15.2136H16.9087V15.2393ZM43.6413 2.26886H42.3922C40.0631 2.26886 35.2618 6.24096 33.0758 7.32076C32.0023 8.23344 32.9587 10.483 34.3965 10.1552C35.2227 9.9624 35.2422 8.84404 35.0796 8.20131C37.2265 6.99939 39.2824 5.67536 41.5985 4.81409C43.1274 4.24848 44.7343 3.86927 46.2762 3.3358C46.2762 3.06585 46.0615 3.01443 45.8468 2.92445C45.0141 2.56451 44.6562 2.5838 43.8235 2.88588C43.3355 3.05942 42.171 3.85641 42.698 2.70592L43.6413 2.27528V2.26886ZM32.3016 7.86066L31.4949 8.36842C30.7987 8.97902 29.8879 9.43536 30.0701 10.5216L32.2626 9.26182C32.1845 8.77977 32.1194 8.33628 32.2951 7.86066H32.3016ZM42.2946 8.65765C41.5074 8.97902 40.5966 9.55105 40.473 10.4509L42.2295 9.62175L42.2946 8.65765ZM27.5783 11.4471H26.4658C26.2772 11.4471 23.8244 13.4268 23.5317 13.7417L25.015 13.6453C25.1061 13.7224 24.397 14.5387 24.2734 14.6094C24.436 14.6672 24.7288 14.513 24.9044 14.4358C26.3747 13.7931 27.7605 12.5655 29.1658 11.7878C29.2438 11.6978 28.834 11.6592 28.821 11.6592C28.346 11.6399 28.4501 11.7556 28.1378 11.9035C28.0272 11.9549 27.3506 12.2891 27.3116 12.257L27.5783 11.46V11.4471Z" fill="white"></path>
<path d="M3.94912 38.577C7.09145 44.5416 12.9337 49.2079 19.4721 51.1104C26.8758 53.2635 34.5917 51.8302 40.8244 47.4725C44.9946 44.5609 48.3126 40.4088 50.1993 35.7233L51.2012 35.6461C49.4642 40.1581 46.478 44.1945 42.659 47.2154C32.9067 54.9218 19.8104 54.9154 10.0581 47.2154C7.10446 44.8887 4.59971 41.9257 2.9342 38.5706H3.94912V38.577Z" fill="white"></path>
<path d="M1.71102 33.0495L0.910801 33.4608C0.696108 32.381 0.396838 31.3205 0.247203 30.2279C-1.23613 19.7513 4.11169 9.42251 13.0703 3.90784C20.578 -0.726285 30.4084 -1.32403 38.3781 2.57095C38.1309 2.72521 37.695 3.09799 37.4087 3.07228C23.7789 -2.97586 8.20388 3.90784 2.77148 17.3025C0.748155 22.2901 0.338285 27.8433 1.71753 33.0495H1.71102Z" fill="white"></path>
<path d="M9.66128 9.62177C3.90358 15.4707 1.13208 23.9291 3.19444 31.9761C3.19444 32.124 2.76506 32.4132 2.62843 32.4517C2.50482 32.4903 2.55036 32.4453 2.52434 32.3746C2.23808 31.7255 2.02339 29.9836 1.93881 29.2252C1.02799 21.1267 4.39152 13.2789 10.4355 7.88638C17.4423 1.63256 27.9688 -0.212092 36.6866 3.5672C36.485 3.68932 36.1662 4.01068 35.9255 3.98497C35.5806 3.95284 34.7804 3.5672 34.3771 3.44508C25.451 0.752012 16.1216 3.05301 9.65477 9.62177H9.66128Z" fill="white"></path>
<path d="M35.0015 4.53129C34.9104 4.9812 33.9671 4.55057 33.5963 4.4863C20.6105 2.06318 9.18625 9.24254 5.46489 21.5509L4.48901 23.4149C5.4714 15.6185 10.7997 8.62552 18.0342 5.40541C23.3951 3.02086 29.3935 2.82161 35.0015 4.53129Z" fill="white"></path>
<path d="M53.6344 27.342H52.7561C52.8342 21.6731 51.0971 16.0813 47.7466 11.4921C47.0635 10.5537 46.1592 9.7246 45.5021 8.85048C45.1052 8.32344 44.9296 7.57786 44.1814 7.32077L44.2204 7.18579L44.7019 6.86443L44.8905 6.92227C50.5571 12.1284 53.8231 19.6613 53.6279 27.342H53.6344Z" fill="white"></path>
<path d="M25.4184 9.12043L21.4823 9.8403L20.1552 7.2565C20.6886 7.22436 21.2416 6.67804 21.7751 6.81944L25.4184 9.11401V9.12043Z" fill="white"></path>
<path d="M15.0872 22.8171C15.8093 22.2387 16.5965 21.6988 17.3577 21.1653C18.9126 20.0855 20.474 18.9928 22.0549 17.9452C22.5884 17.5917 23.9416 16.5762 24.5011 16.5633C24.5792 16.5633 24.6508 16.5504 24.5727 16.634C21.9769 18.4015 19.6152 20.6897 17.0389 22.4443C16.8047 22.5986 16.4924 22.8171 16.1997 22.8171H15.0872Z" fill="white"></path>
<path d="M12.5889 22.3479C12.5498 22.1937 12.6149 22.2387 12.6734 22.2001C15.5751 20.2333 18.6654 18.4787 21.6125 16.5762L21.8337 16.6662L13.5778 22.5665C13.2785 22.6822 12.8816 22.4186 12.5889 22.3479Z" fill="white"></path>
<path d="M18.262 16.769L11.4438 20.4261C11.3788 20.3362 11.5674 19.4556 11.691 19.3592L18.262 16.769Z" fill="white"></path>
<path d="M44.2984 8.27844C45.0986 9.00473 44.7213 10.8044 43.6478 10.0203C43.1859 9.6796 43.0102 9.04972 43.1273 8.5034C43.2575 7.87352 43.9015 7.91208 44.3049 8.27844H44.2984Z" fill="white"></path>
<path d="M11.4959 32.7088C11.2682 32.7795 9.92802 33.2937 9.82392 33.1909L9.63525 31.4041C9.94754 31.3205 10.9885 30.6392 11.2487 30.8192C11.3398 31.1148 11.6651 32.5481 11.4959 32.7024V32.7088Z" fill="white"></path>
<path d="M49.2494 28.4025V28.9295C47.4473 29.1481 45.6516 29.4244 43.856 29.598L43.7129 29.1031L49.2494 28.4025Z" fill="white"></path>
<path d="M43.9796 29.9322L49.0867 29.2702C49.4641 29.2638 49.2819 29.7073 48.9111 29.8358C47.6945 30.2407 45.8273 30.1058 44.5456 30.4593C44.1293 30.4657 44.1032 30.26 43.9796 29.9322Z" fill="white"></path>
<path d="M49.1128 31.3977C49.2234 32.3296 48.7095 32.2911 47.9808 32.4453C47.3172 32.5803 46.2958 32.7667 45.6387 32.7988C45.2744 32.8181 45.0792 32.876 44.884 32.5482C44.8059 32.4132 44.6368 32.0918 44.8385 32.0211L49.1128 31.4105V31.3977Z" fill="white"></path>
<path d="M43.7 31.809L44.0513 32.6574C43.6935 32.6767 43.2901 32.7731 42.9388 32.7924C41.9954 32.8374 42.2101 32.606 42.093 31.7897C42.6395 31.7062 43.1535 31.6997 43.7 31.8026V31.809Z" fill="white"></path>
<path d="M9.11473 31.6612C9.25786 31.6676 9.44653 33.1395 9.4075 33.3451L8.17138 33.7822C8.08681 33.7565 8.09331 33.6858 8.06729 33.6215C8.02825 33.5058 7.8526 32.3746 7.87211 32.3103C7.93717 32.0597 8.88703 31.8476 9.11473 31.6676V31.6612Z" fill="white"></path>
<path d="M7.59241 32.3939L7.78759 33.9107L6.55147 34.3157C6.38883 34.2771 6.36931 33.1395 6.31726 32.9338L7.59241 32.3939Z" fill="white"></path>
<path d="M5.97237 33.1266L6.16754 34.4507C5.95285 34.5149 5.18516 34.8813 5.02251 34.7656L4.85986 33.5958L5.97237 33.133V33.1266Z" fill="white"></path>
<path d="M33.5703 7.46859C34.7999 7.26934 35.2163 9.57033 34.403 9.821C33.1344 10.2066 32.3862 7.66141 33.5703 7.46859Z" fill="white"></path>
<path d="M35.2683 6.9287L35.3464 7.41075L35.0471 7.51359C34.7413 7.30149 34.8714 6.83872 35.2683 6.9287Z" fill="black"></path>
<path d="M37.7796 5.27045C38.1634 5.11619 38.2805 5.77178 38.0008 5.85533C37.721 5.93889 37.6365 5.45041 37.7796 5.27045Z" fill="black"></path>
<path d="M39.1978 4.98763C39.1393 4.82052 39.0677 4.64056 39.1848 4.49273L39.4256 4.39632C39.5687 4.43488 39.5427 4.76268 39.5231 4.8848L39.2044 4.98763H39.1978Z" fill="black"></path>
<path d="M38.6838 4.80124C38.8335 4.92979 38.905 5.14832 38.8205 5.32828C38.6123 5.75892 38.1504 4.9555 38.6838 4.80124Z" fill="black"></path>
<path d="M36.6801 6.13813C36.8298 6.22811 36.7582 6.7423 36.4589 6.65875C36.1336 6.46593 36.3288 5.93245 36.6801 6.13813Z" fill="black"></path>
<path d="M37.1355 5.66893C37.2006 5.64965 37.3112 5.64965 37.3697 5.68821C37.5714 6.85799 36.6476 5.82319 37.1355 5.66893Z" fill="black"></path>
<path d="M35.7172 6.5302C36.1011 6.40165 36.0815 7.00582 35.9124 7.05724C35.6326 7.13437 35.483 6.60733 35.7172 6.5302Z" fill="black"></path>
</g><style>@media (prefers-color-scheme: light) { :root { filter: none; } }
@media (prefers-color-scheme: dark) { :root { filter: none; } }
</style></svg>