<svg xmlns="http://www.w3.org/2000/svg" width="50" height="52" viewBox="0 0 50 52" fill="none"><path d="M4.70743 0.3042L0.2925 4.89605C0.105 5.09105 0 5.35625 0 5.63185V9.36174C0 9.93641 0.447499 10.4018 0.999999 10.4018H34.586C34.851 10.4018 35.106 10.2926 35.2935 10.0976L39.7071 5.50705C39.8946 5.31205 39.9996 5.04685 39.9996 4.77125V1.04006C39.9996 0.465399 39.5521 0 38.9996 0H5.41368C5.14868 0 4.89368 0.1092 4.70618 0.3042H4.70743Z" fill="#E7F0FF"></path><path d="M9.70768 15.9035L5.29393 20.494C5.10643 20.689 5.00143 20.9542 5.00143 21.2298V24.9597C5.00143 25.5343 5.44893 25.9997 6.00143 25.9997H19.5875C19.8525 25.9997 20.1075 25.8905 20.295 25.6955L24.7088 21.105C24.8963 20.91 25.0013 20.6448 25.0013 20.3692V16.6393C25.0013 16.0647 24.5538 15.5992 24.0013 15.5992H10.4151C10.1502 15.5992 9.89518 15.7084 9.70768 15.9035Z" fill="#E7F0FF"></path><path d="M49.7075 47.1052L45.2937 51.6957C45.1062 51.8908 44.8512 52 44.5862 52H41.0001C40.4476 52 40.0001 51.5345 40.0001 50.9599V16.0298C40.0001 15.7542 40.1051 15.489 40.2926 15.294L44.7062 10.7035C44.8937 10.5084 45.1487 10.3992 45.4137 10.3992H49C49.5525 10.3992 50 10.8647 50 11.4393V46.3707C50 46.6463 49.895 46.9115 49.7075 47.1065V47.1052Z" fill="#E7F0FF"></path><path d="M34.706 41.9077L30.2923 46.4982C30.1048 46.6932 29.8498 46.8024 29.5848 46.8024H25.9986C25.4461 46.8024 24.9986 46.3369 24.9986 45.7623V31.6319C24.9986 31.3563 25.1036 31.0911 25.2911 30.8961L29.7048 26.3056C29.8923 26.1106 30.1473 26.0013 30.4123 26.0013H33.9985C34.551 26.0013 34.9985 26.4668 34.9985 27.0414V41.1718C34.9985 41.4475 34.8935 41.7127 34.706 41.9077Z" fill="#E7F0FF"></path></svg>