<svg width="192" height="54" viewBox="0 0 192 54" fill="none" xmlns="http://www.w3.org/2000/svg">
<path d="M4.70743 1.97923L0.2925 6.57109C0.105 6.76609 0 7.03129 0 7.30689V11.0368C0 11.6114 0.447499 12.0768 0.999999 12.0768H34.586C34.851 12.0768 35.106 11.9676 35.2935 11.7726L39.7071 7.18209C39.8946 6.98709 39.9996 6.72189 39.9996 6.44629V2.7151C39.9996 2.14043 39.5521 1.67503 38.9996 1.67503H5.41368C5.14868 1.67503 4.89368 1.78423 4.70618 1.97923H4.70743Z" fill="#E7F0FF"/>
<path d="M9.70768 17.5785L5.29393 22.169C5.10643 22.364 5.00143 22.6292 5.00143 22.9048V26.6347C5.00143 27.2093 5.44893 27.6747 6.00143 27.6747H19.5875C19.8525 27.6747 20.1075 27.5655 20.295 27.3705L24.7088 22.78C24.8963 22.585 25.0013 22.3198 25.0013 22.0442V18.3143C25.0013 17.7397 24.5538 17.2742 24.0013 17.2742H10.4151C10.1502 17.2742 9.89518 17.3834 9.70768 17.5785Z" fill="#E7F0FF"/>
<path d="M49.7075 48.7803L45.2937 53.3708C45.1062 53.5658 44.8512 53.675 44.5862 53.675H41.0001C40.4476 53.675 40.0001 53.2096 40.0001 52.635V17.7049C40.0001 17.4292 40.1051 17.164 40.2926 16.969L44.7062 12.3785C44.8937 12.1834 45.1487 12.0742 45.4137 12.0742H49C49.5525 12.0742 50 12.5397 50 13.1143V48.0457C50 48.3213 49.895 48.5866 49.7075 48.7816V48.7803Z" fill="#E7F0FF"/>
<path d="M34.706 43.5827L30.2923 48.1732C30.1048 48.3682 29.8498 48.4774 29.5848 48.4774H25.9986C25.4461 48.4774 24.9986 48.012 24.9986 47.4374V33.307C24.9986 33.0314 25.1036 32.7661 25.2911 32.5711L29.7048 27.9806C29.8923 27.7856 30.1473 27.6764 30.4123 27.6764H33.9985C34.551 27.6764 34.9985 28.1418 34.9985 28.7164V42.8468C34.9985 43.1225 34.8935 43.3877 34.706 43.5827Z" fill="#E7F0FF"/>
<path d="M72.3125 7V15H71.375L67.0156 8.71875H66.9375V15H65.9688V7H66.9062L71.2813 13.2969H71.3594V7H72.3125ZM74.5791 15H73.5635L76.501 7H77.501L80.4385 15H79.4229L77.0322 8.26562H76.9697L74.5791 15ZM74.9541 11.875H79.0479V12.7344H74.9541V11.875ZM81.2607 7L83.6357 13.7344H83.7295L86.1045 7H87.1201L84.1826 15H83.1826L80.2451 7H81.2607ZM94.7402 11C94.7402 11.8437 94.5879 12.5729 94.2832 13.1875C93.9785 13.8021 93.5605 14.276 93.0293 14.6094C92.498 14.9427 91.8913 15.1094 91.209 15.1094C90.5267 15.1094 89.9199 14.9427 89.3887 14.6094C88.8574 14.276 88.4395 13.8021 88.1348 13.1875C87.8301 12.5729 87.6777 11.8437 87.6777 11C87.6777 10.1562 87.8301 9.42708 88.1348 8.8125C88.4395 8.19792 88.8574 7.72396 89.3887 7.39062C89.9199 7.05729 90.5267 6.89062 91.209 6.89062C91.8913 6.89062 92.498 7.05729 93.0293 7.39062C93.5605 7.72396 93.9785 8.19792 94.2832 8.8125C94.5879 9.42708 94.7402 10.1562 94.7402 11ZM93.8027 11C93.8027 10.3073 93.6868 9.72266 93.4551 9.24609C93.2259 8.76953 92.9147 8.40885 92.5215 8.16406C92.1309 7.91927 91.6934 7.79687 91.209 7.79687C90.7246 7.79687 90.2858 7.91927 89.8926 8.16406C89.502 8.40885 89.1908 8.76953 88.959 9.24609C88.7298 9.72266 88.6152 10.3073 88.6152 11C88.6152 11.6927 88.7298 12.2773 88.959 12.7539C89.1908 13.2305 89.502 13.5911 89.8926 13.8359C90.2858 14.0807 90.7246 14.2031 91.209 14.2031C91.6934 14.2031 92.1309 14.0807 92.5215 13.8359C92.9147 13.5911 93.2259 13.2305 93.4551 12.7539C93.6868 12.2773 93.8027 11.6927 93.8027 11ZM97.3379 7V15H96.3691V7H97.3379ZM106.437 7V15H105.468V7H106.437ZM114.723 7V15H113.785L109.426 8.71875H109.348V15H108.379V7H109.316L113.691 13.2969H113.77V7H114.723ZM116.224 7.85937V7H122.224V7.85937H119.708V15H118.739V7.85937H116.224ZM123.719 15V7H128.547V7.85937H124.688V10.5625H128.297V11.4219H124.688V14.1406H128.609V15H123.719ZM130.293 15V7H132.996C133.621 7 134.134 7.10677 134.535 7.32031C134.936 7.53125 135.233 7.82161 135.426 8.19141C135.618 8.5612 135.715 8.98177 135.715 9.45312C135.715 9.92448 135.618 10.3424 135.426 10.707C135.233 11.0716 134.938 11.3581 134.539 11.5664C134.141 11.7721 133.632 11.875 133.012 11.875H130.824V11H132.98C133.408 11 133.751 10.9375 134.012 10.8125C134.275 10.6875 134.465 10.5104 134.582 10.2812C134.702 10.0495 134.762 9.77344 134.762 9.45312C134.762 9.13281 134.702 8.85286 134.582 8.61328C134.462 8.3737 134.271 8.1888 134.008 8.05859C133.745 7.92578 133.397 7.85937 132.965 7.85937H131.262V15H130.293ZM134.059 11.4062L136.027 15H134.902L132.965 11.4062H134.059ZM143.673 7V15H142.735L138.376 8.71875H138.298V15H137.329V7H138.267L142.642 13.2969H142.72V7H143.673ZM145.939 15H144.924L147.861 7H148.861L151.799 15H150.783L148.393 8.26562H148.33L145.939 15ZM146.314 11.875H150.408V12.7344H146.314V11.875ZM151.673 7.85937V7H157.673V7.85937H155.157V15H154.188V7.85937H151.673ZM160.137 7V15H159.168V7H160.137ZM168.829 11C168.829 11.8437 168.677 12.5729 168.372 13.1875C168.067 13.8021 167.649 14.276 167.118 14.6094C166.587 14.9427 165.98 15.1094 165.298 15.1094C164.616 15.1094 164.009 14.9427 163.478 14.6094C162.946 14.276 162.528 13.8021 162.224 13.1875C161.919 12.5729 161.767 11.8437 161.767 11C161.767 10.1562 161.919 9.42708 162.224 8.8125C162.528 8.19792 162.946 7.72396 163.478 7.39062C164.009 7.05729 164.616 6.89062 165.298 6.89062C165.98 6.89062 166.587 7.05729 167.118 7.39062C167.649 7.72396 168.067 8.19792 168.372 8.8125C168.677 9.42708 168.829 10.1562 168.829 11ZM167.892 11C167.892 10.3073 167.776 9.72266 167.544 9.24609C167.315 8.76953 167.004 8.40885 166.61 8.16406C166.22 7.91927 165.782 7.79687 165.298 7.79687C164.813 7.79687 164.375 7.91927 163.981 8.16406C163.591 8.40885 163.28 8.76953 163.048 9.24609C162.819 9.72266 162.704 10.3073 162.704 11C162.704 11.6927 162.819 12.2773 163.048 12.7539C163.28 13.2305 163.591 13.5911 163.981 13.8359C164.375 14.0807 164.813 14.2031 165.298 14.2031C165.782 14.2031 166.22 14.0807 166.61 13.8359C167.004 13.5911 167.315 13.2305 167.544 12.7539C167.776 12.2773 167.892 11.6927 167.892 11ZM176.802 7V15H175.864L171.505 8.71875H171.427V15H170.458V7H171.396L175.771 13.2969H175.849V7H176.802ZM179.068 15H178.053L180.99 7H181.99L184.928 15H183.912L181.521 8.26562H181.459L179.068 15ZM179.443 11.875H183.537V12.7344H179.443V11.875ZM186.174 15V7H187.143V14.1406H190.861V15H186.174ZM70.3089 43H65.5859L71.7205 24.8182H77.571L83.7056 43H78.9826L74.7124 29.3991H74.5703L70.3089 43ZM69.6786 35.8445H79.5508V39.1825H69.6786V35.8445ZM92.3077 24.8182V43H87.9132V24.8182H92.3077ZM97.3165 43V24.8182H104.827C106.188 24.8182 107.363 25.0638 108.352 25.555C109.346 26.0404 110.112 26.7388 110.651 27.6502C111.19 28.5558 111.459 29.63 111.459 30.8729C111.459 32.1335 111.184 33.2048 110.633 34.0866C110.083 34.9626 109.302 35.6314 108.29 36.093C107.277 36.5488 106.079 36.7766 104.694 36.7766H99.9443V33.3143H103.877C104.54 33.3143 105.093 33.2285 105.537 33.0568C105.987 32.8793 106.328 32.6129 106.558 32.2578C106.789 31.8968 106.905 31.4351 106.905 30.8729C106.905 30.3106 106.789 29.846 106.558 29.479C106.328 29.1062 105.987 28.828 105.537 28.6445C105.088 28.4551 104.534 28.3604 103.877 28.3604H101.711V43H97.3165ZM107.553 34.6903L112.08 43H107.286L102.847 34.6903H107.553ZM116.119 43V24.8182H123.63C124.991 24.8182 126.166 25.0845 127.154 25.6172C128.149 26.1439 128.915 26.8808 129.454 27.8278C129.992 28.7688 130.262 29.8638 130.262 31.1126C130.262 32.3673 129.986 33.4652 129.436 34.4062C128.891 35.3414 128.113 36.0664 127.101 36.5813C126.089 37.0962 124.888 37.3537 123.497 37.3537H118.862V33.8913H122.68C123.343 33.8913 123.896 33.7759 124.34 33.5451C124.79 33.3143 125.13 32.9917 125.361 32.5774C125.592 32.1572 125.707 31.6689 125.707 31.1126C125.707 30.5503 125.592 30.065 125.361 29.6566C125.13 29.2423 124.79 28.9227 124.34 28.6978C123.89 28.4729 123.337 28.3604 122.68 28.3604H120.514V43H116.119ZM151.839 33.9091C151.839 35.9096 151.454 37.6052 150.685 38.9961C149.915 40.387 148.873 41.4434 147.56 42.1655C146.252 42.8875 144.784 43.2486 143.156 43.2486C141.523 43.2486 140.052 42.8846 138.744 42.1566C137.436 41.4286 136.397 40.3722 135.628 38.9872C134.864 37.5964 134.483 35.9036 134.483 33.9091C134.483 31.9086 134.864 30.2129 135.628 28.8221C136.397 27.4312 137.436 26.3748 138.744 25.6527C140.052 24.9306 141.523 24.5696 143.156 24.5696C144.784 24.5696 146.252 24.9306 147.56 25.6527C148.873 26.3748 149.915 27.4312 150.685 28.8221C151.454 30.2129 151.839 31.9086 151.839 33.9091ZM147.347 33.9091C147.347 32.7254 147.178 31.7251 146.84 30.9084C146.509 30.0916 146.03 29.4731 145.402 29.0529C144.781 28.6327 144.032 28.4226 143.156 28.4226C142.286 28.4226 141.537 28.6327 140.91 29.0529C140.283 29.4731 139.8 30.0916 139.463 30.9084C139.132 31.7251 138.966 32.7254 138.966 33.9091C138.966 35.0928 139.132 36.093 139.463 36.9098C139.8 37.7266 140.283 38.3451 140.91 38.7653C141.537 39.1855 142.286 39.3956 143.156 39.3956C144.032 39.3956 144.781 39.1855 145.402 38.7653C146.03 38.3451 146.509 37.7266 146.84 36.9098C147.178 36.093 147.347 35.0928 147.347 33.9091ZM156.654 43V24.8182H164.165C165.526 24.8182 166.701 25.0638 167.69 25.555C168.684 26.0404 169.45 26.7388 169.989 27.6502C170.527 28.5558 170.797 29.63 170.797 30.8729C170.797 32.1335 170.522 33.2048 169.971 34.0866C169.421 34.9626 168.639 35.6314 167.627 36.093C166.615 36.5488 165.417 36.7766 164.032 36.7766H159.282V33.3143H163.215C163.878 33.3143 164.431 33.2285 164.875 33.0568C165.325 32.8793 165.665 32.6129 165.896 32.2578C166.127 31.8968 166.242 31.4351 166.242 30.8729C166.242 30.3106 166.127 29.846 165.896 29.479C165.665 29.1062 165.325 28.828 164.875 28.6445C164.425 28.4551 163.872 28.3604 163.215 28.3604H161.049V43H156.654ZM166.891 34.6903L171.418 43H166.624L162.185 34.6903H166.891ZM174.862 28.3871V24.8182H190.23V28.3871H184.717V43H180.384V28.3871H174.862Z" fill="white"/>
</svg>
