<svg width="715" height="715" viewBox="0 0 715 715" fill="none" xmlns="http://www.w3.org/2000/svg">
<g opacity="0.55">
<path d="M125.353 74.8462L74.8462 125.357C72.7012 127.502 71.5 130.419 71.5 133.45V174.479C71.5 180.801 76.6194 185.92 82.94 185.92H467.164C470.195 185.92 473.113 184.719 475.258 182.574L525.75 132.078C527.895 129.933 529.096 127.015 529.096 123.984V82.9407C529.096 76.6194 523.977 71.5 517.656 71.5H133.433C130.401 71.5 127.484 72.7012 125.339 74.8462H125.353Z" fill="#E7F0FF"/>
<path d="M182.556 246.438L132.063 296.934C129.918 299.079 128.716 301.996 128.716 305.028V346.057C128.716 352.378 133.836 357.497 140.156 357.497H295.582C298.613 357.497 301.531 356.296 303.676 354.151L354.169 303.655C356.314 301.51 357.515 298.593 357.515 295.561V254.532C357.515 248.212 352.396 243.091 346.075 243.091H190.649C187.618 243.091 184.701 244.293 182.556 246.438Z" fill="#E7F0FF"/>
<path d="M640.154 589.658L589.661 640.154C587.516 642.3 584.599 643.501 581.567 643.501H540.541C534.221 643.501 529.101 638.381 529.101 632.06V247.828C529.101 244.796 530.303 241.879 532.448 239.734L582.94 189.238C585.085 187.093 588.002 185.891 591.034 185.891H632.061C638.381 185.891 643.501 191.012 643.501 197.332V581.578C643.501 584.61 642.299 587.528 640.154 589.673V589.658Z" fill="#E7F0FF"/>
<path d="M468.537 532.485L418.045 582.981C415.9 585.126 412.983 586.327 409.951 586.327H368.924C362.604 586.327 357.485 581.207 357.485 574.887V419.452C357.485 416.42 358.686 413.503 360.83 411.358L411.324 360.862C413.469 358.717 416.386 357.515 419.418 357.515H460.444C466.764 357.515 471.884 362.635 471.884 368.956V524.39C471.884 527.423 470.682 530.34 468.537 532.485Z" fill="#E7F0FF"/>
</g>
</svg>
